Coordinates
version=1
nRows=17
nColumns=40
inDegrees=yes

Units are S.I. units (second, meters, Newtons, ...)
Angles are in degrees.

endheader
time	pelvis_tilt	pelvis_list	pelvis_rotation	pelvis_tx	pelvis_ty	pelvis_tz	hip_flexion_r	hip_adduction_r	hip_rotation_r	knee_angle_r	knee_angle_r_beta	ankle_angle_r	subtalar_angle_r	mtp_angle_r	hip_flexion_l	hip_adduction_l	hip_rotation_l	knee_angle_l	knee_angle_l_beta	ankle_angle_l	subtalar_angle_l	mtp_angle_l	lumbar_extension	lumbar_bending	lumbar_rotation	arm_flex_r	arm_add_r	arm_rot_r	elbow_flex_r	pro_sup_r	wrist_flex_r	wrist_dev_r	arm_flex_l	arm_add_l	arm_rot_l	elbow_flex_l	pro_sup_l	wrist_flex_l	wrist_dev_l
     19.31500000	     -2.43327507	     -4.77496153	      0.84690465	      1.07118905	      0.92334266	      0.44916335	     21.20029836	      0.28503132	    -12.91625231	     20.94687796	     20.94687796	      3.67614667	     -4.81037672	     -0.62544785	     -1.15240979	    -10.23331820	     -9.27611727	     33.57719377	     33.57719377	     13.43697567	     -8.06917129	    -12.76851611	     -9.88948481	      6.16280544	      0.58077130	    -15.95910964	    -12.82414086	     -1.93820866	     30.33609407	     46.16810854	      0.00000000	      0.00000000	     14.53906962	    -16.13423997	     -5.99242929	     98.77807547	     48.35882463	      0.00000000	      0.00000000
     19.32657143	     -2.42719082	     -4.82674423	      0.98525787	      1.07170542	      0.92498711	      0.45183891	     20.26645247	      0.46380426	    -13.55277623	     20.40602892	     20.40602892	      4.08845900	     -3.77449347	     -0.96459237	      0.28608172	    -10.73854170	     -8.23844106	     36.49492717	     36.49492717	      8.49703669	    -11.76299134	    -18.79781488	     -9.87664711	      6.07401902	      0.78998112	    -14.68312805	    -13.10833497	     -0.69008373	     31.83247806	     46.02000368	      0.00000000	      0.00000000	     13.62766168	    -15.18124098	     -6.50858345	     95.89927992	     48.35542364	      0.00000000	      0.00000000
     19.33814286	     -2.42039159	     -5.08547946	      1.14291951	      1.07197450	      0.92634793	      0.45473871	     19.30132457	      0.97690412	    -13.94121728	     19.73467634	     19.73467634	      4.40511203	     -3.35453780	     -1.00323172	      2.26042231	    -11.68107620	     -7.44743489	     40.52699480	     40.52699480	      6.03017817	    -12.85872841	    -18.91629452	     -9.99057185	      6.13790161	      0.88195970	    -12.98489004	    -13.24295410	     -0.68975095	     32.69177496	     45.99717825	      0.00000000	      0.00000000	     12.25246695	    -14.91627300	     -6.07511884	     94.56148327	     48.29673473	      0.00000000	      0.00000000
     19.34971429	     -2.50468687	     -5.27804492	      1.30560314	      1.07200256	      0.92736500	      0.45745291	     18.45078960	      1.39529882	    -14.34827111	     19.06856346	     19.06856346	      4.74425970	     -2.79004465	     -1.12128690	      4.48170074	    -12.39859966	     -6.36755717	     44.56915886	     44.56915886	      3.21652823	    -14.36188034	    -18.71136569	     -9.94967137	      6.17412401	      0.81458804	    -11.21971636	    -13.39939441	     -0.70480787	     33.78762454	     45.96564373	      0.00000000	      0.00000000	     10.90626807	    -14.66546653	     -5.86003951	     92.43146225	     48.23659596	      0.00000000	      0.00000000
     19.36128571	     -2.54676538	     -5.35006122	      1.45358050	      1.07183760	      0.92828833	      0.46000678	     17.64110850	      1.64580475	    -14.77846518	     18.54748846	     18.54748846	      5.00274789	     -2.10432363	     -1.64879573	      6.71469082	    -12.82135829	     -5.16112858	     48.48797737	     48.48797737	      0.50112217	    -15.93902160	    -17.32139066	     -9.93180047	      6.08682201	      1.26742887	    -10.36047601	    -13.85255654	     -0.09827652	     36.87081807	     45.79860601	      0.00000000	      0.00000000	     10.53535592	    -13.92792249	     -5.47004475	     88.22602529	     48.15008284	      0.00000000	      0.00000000
     19.37285714	     -2.60093257	     -5.64369377	      1.63905981	      1.07140965	      0.92884338	      0.46263753	     16.88448052	      2.17509561	    -15.11661939	     18.03967732	     18.03967732	      5.31822382	     -1.79151409	     -1.72554321	      9.11387938	    -13.53829880	     -4.03602074	     52.38484629	     52.38484629	     -2.13082652	    -17.02776632	    -16.04667716	     -9.99971137	      6.17765872	      1.20705327	     -8.36168350	    -14.05510836	     -0.25180559	     37.93729932	     45.77875749	      0.00000000	      0.00000000	      9.25969911	    -13.65511725	     -5.21596890	     86.17902837	     48.08934549	      0.00000000	      0.00000000
     19.38442857	     -2.63495449	     -5.68081900	      1.79809937	      1.07073033	      0.92937516	      0.46494650	     16.22010347	      2.38571389	    -15.32119961	     17.73124997	     17.73124997	      5.68983067	     -1.40176138	     -2.06609898	     11.63006966	    -13.70582562	     -2.77078655	     56.34590673	     56.34590673	     -2.87905532	    -17.42124672	    -10.11259958	    -10.01234110	      6.04457503	      1.29363359	     -6.64737855	    -14.30701907	     -0.26098519	     40.08729852	     45.70332459	      0.00000000	      0.00000000	      9.00550601	    -12.86656126	     -5.48622494	     81.07653221	     48.01550137	      0.00000000	      0.00000000
     19.39600000	     -2.75332185	     -5.91366559	      2.01800959	      1.06984196	      0.92957496	      0.46727552	     15.59898316	      2.85870297	    -15.43026445	     17.25397281	     17.25397281	      5.98578685	     -1.36414294	     -2.18554699	     14.24275973	    -14.14258216	     -1.64046635	     59.88134675	     59.88134675	     -3.91935852	    -17.91213628	     -5.96276212	     -9.99221847	      6.09714803	      1.07939822	     -4.60491061	    -14.44582873	     -0.45526453	     42.07132290	     45.64862555	      0.00000000	      0.00000000	      8.05216305	    -12.70373682	     -5.02007616	     77.64434763	     47.91909603	      0.00000000	      0.00000000
     19.40757143	     -2.83213854	     -6.36205334	      2.32101973	      1.06870880	      0.92949426	      0.46955551	     15.03264416	      3.52891875	    -15.72695482	     16.90416078	     16.90416078	      6.30789301	     -1.38861188	     -2.28264848	     16.83366309	    -14.85347492	     -0.56445005	     63.01907739	     63.01907739	     -5.06817226	    -18.52867935	     -3.64197661	    -10.06506191	      6.35138528	      1.03772184	     -2.49398357	    -14.67514599	     -0.64225212	     43.48657408	     45.61719235	      0.00000000	      0.00000000	      7.03078251	    -12.28040933	     -4.62350653	     75.22785305	     47.84382693	      0.00000000	      0.00000000
     19.41914286	     -2.89971147	     -6.43161621	      2.56090848	      1.06731816	      0.92965893	      0.47138671	     14.49342816	      3.79954589	    -15.63804737	     16.61703684	     16.61703684	      6.57049101	     -1.63886326	     -2.62525206	     19.56446887	    -14.78881046	      0.56106852	     66.18804673	     66.18804673	     -2.85274657	    -18.54042417	      6.79245712	    -10.11844038	      6.26040805	      1.77264692	     -1.22925280	    -15.15669778	     -0.53981554	     46.58277873	     45.50237773	      0.00000000	      0.00000000	      7.83003389	    -11.20916056	     -4.33233347	     68.51870629	     47.71004101	      0.00000000	      0.00000000
     19.43071429	     -2.92031007	     -6.71847807	      2.87173283	      1.06583307	      0.92965278	      0.47328901	     13.88106680	      4.32270647	    -15.65166998	     16.23443326	     16.23443326	      6.86661151	     -1.93672718	     -2.76327842	     22.05328921	    -15.22369067	      1.33474029	     68.56076672	     68.56076672	     -2.02651848	    -18.93520908	     11.53188628	    -10.26837255	      6.37627681	      1.75890580	      0.76271032	    -15.37761001	     -0.85382796	     49.20169753	     45.43356931	      0.00000000	      0.00000000	      7.50345702	    -10.87160144	     -3.57267516	     64.25509946	     47.58143816	      0.00000000	      0.00000000
     19.44228571	     -3.00402533	     -7.02283639	      3.22560172	      1.06412973	      0.92956677	      0.47502461	     13.32565898	      4.84995572	    -15.75174887	     15.79132344	     15.79132344	      7.12419334	     -2.14797411	     -2.89404202	     24.59055442	    -15.66366152	      2.00392380	     70.47178240	     70.47178240	     -0.73614889	    -19.23637119	     15.86460898	    -10.34703831	      6.50402260	      1.91111330	      2.65675747	    -15.62177864	     -1.22897619	     51.90760155	     45.36874283	      0.00000000	      0.00000000	      7.33940923	    -10.41975315	     -2.84651369	     59.75085645	     47.45004501	      0.00000000	      0.00000000
     19.45385714	     -3.06186287	     -7.32622641	      3.58462337	      1.06229861	      0.92955122	      0.47663231	     12.73487784	      5.40589644	    -15.70792854	     15.29194442	     15.29194442	      7.34300996	     -2.57246647	     -2.87286294	     26.99980373	    -16.13302804	      2.47741245	     71.84061607	     71.84061607	      0.71045977	    -19.43221791	     19.08419520	    -10.46622512	      6.63938975	      1.84663206	      4.92764065	    -15.83301931	     -1.24873151	     54.29199809	     45.30318874	      0.00000000	      0.00000000	      7.11436017	     -9.97013159	     -2.43227564	     55.16861660	     47.34558568	      0.00000000	      0.00000000
     19.46542857	     -3.11850254	     -7.57583384	      3.94082398	      1.06032516	      0.92959989	      0.47800614	     12.13493926	      5.88635518	    -15.71485450	     14.76528259	     14.76528259	      7.55537514	     -2.87308722	     -2.83019423	     29.28116197	    -16.49958525	      2.78968474	     72.65835594	     72.65835594	      2.33012990	    -19.55216137	     21.56579703	    -10.61226447	      6.72994199	      1.79268135	      7.21545108	    -16.05674943	     -1.23262555	     56.92648035	     45.23038177	      0.00000000	      0.00000000	      6.88285213	     -9.53646922	     -2.01533012	     50.68530489	     47.24362909	      0.00000000	      0.00000000
     19.47700000	     -3.18820660	     -7.78798664	      4.31758732	      1.05825038	      0.92965597	      0.47915091	     11.52656675	      6.30589082	    -15.82118191	     14.19423703	     14.19423703	      7.77692149	     -3.00415062	     -2.73709798	     31.41771348	    -16.76068683	      2.97078893	     72.88978251	     72.88978251	      3.59406896	    -19.62385710	     22.20620116	    -10.78373590	      6.79048167	      1.17077655	     10.04358672	    -15.80765285	     -1.45113419	     59.13719863	     45.17850790	      0.00000000	      0.00000000	      5.71570671	     -9.48447361	     -1.66508721	     48.10116342	     47.16846194	      0.00000000	      0.00000000
     19.48857143	     -3.30346402	     -7.86032311	      4.59616190	      1.05600872	      0.92984839	      0.48002421	     11.00032796	      6.55933222	    -15.76108916	     13.68417294	     13.68417294	      7.96376636	     -3.21289644	     -2.64204062	     33.41873630	    -16.70589860	      3.01717762	     72.61268806	     72.61268806	      5.40676403	    -19.66072711	     24.17773261	    -10.90849177	      6.74144493	      1.68769787	     11.92073152	    -16.55134488	     -0.99191596	     62.42107244	     45.07266972	      0.00000000	      0.00000000	      6.37455556	     -8.67597962	     -1.25304627	     42.15114781	     47.06244230	      0.00000000	      0.00000000
     19.50014286	     -3.42184890	     -7.85635740	      4.91164846	      1.05372997	      0.93005548	      0.48058353	     10.45508773	      6.69474325	    -15.84035021	     13.15850659	     13.15850659	      8.19159202	     -3.19384584	     -2.56142510	     35.17509385	    -16.43881756	      2.98493194	     71.70130745	     71.70130745	      6.58119417	    -19.67144990	     24.22873660	    -11.08794842	      6.61244866	      1.20352920	     14.80424259	    -16.26086999	     -1.31615875	     64.76355869	     45.02204337	      0.00000000	      0.00000000	      5.14479134	     -8.56198623	     -0.96328958	     40.07360939	     46.99552574	      0.00000000	      0.00000000
